<svg width="11" height="11" viewBox="0 0 11 11" fill="none" xmlns="http://www.w3.org/2000/svg">
<path d="M9.67175 4.98541L5.82174 8.84687C5.77591 8.8927 5.72626 8.92524 5.67279 8.94449C5.61932 8.96374 5.56202 8.97321 5.50091 8.97291C5.4398 8.97291 5.38251 8.96344 5.32904 8.94449C5.27557 8.92555 5.22591 8.89301 5.18008 8.84687L1.31862 4.98541C1.21168 4.87846 1.1582 4.74478 1.1582 4.58437C1.1582 4.42395 1.21549 4.28645 1.33008 4.17187C1.44466 4.05728 1.57834 3.99999 1.73112 3.99999C1.8839 3.99999 2.01758 4.05728 2.13216 4.17187L5.50091 7.54062L8.86966 4.17187C8.97661 4.06492 9.10845 4.01145 9.2652 4.01145C9.42195 4.01145 9.55747 4.06874 9.67175 4.18333C9.78633 4.29791 9.84362 4.43159 9.84362 4.58437C9.84362 4.73714 9.78633 4.87083 9.67175 4.98541Z" fill="#222222"/>
</svg>
