<svg width="61" height="61" viewBox="0 0 61 61" fill="none" xmlns="http://www.w3.org/2000/svg">
<circle opacity="0.1" cx="30.5" cy="30.5" r="30.5" fill="#C73E00"/>
<path d="M31.779 20.4368C32.0017 20.529 32.1921 20.6853 32.326 20.8857C32.4599 21.0862 32.5314 21.3218 32.5314 21.5629V28.0629C32.5314 28.3861 32.403 28.6961 32.1744 28.9247C31.9459 29.1532 31.6359 29.2816 31.3126 29.2816C30.9894 29.2816 30.6794 29.1532 30.4508 28.9247C30.2223 28.6961 30.0939 28.3861 30.0939 28.0629V24.5041L29.7364 24.8616C29.6248 24.9814 29.4903 25.0774 29.3408 25.144C29.1913 25.2107 29.0299 25.2465 28.8662 25.2494C28.7026 25.2522 28.54 25.2221 28.3883 25.1608C28.2365 25.0995 28.0987 25.0083 27.9829 24.8926C27.8672 24.7769 27.776 24.639 27.7147 24.4872C27.6534 24.3355 27.6233 24.1729 27.6262 24.0093C27.6291 23.8457 27.6649 23.6843 27.7315 23.5348C27.7981 23.3853 27.8941 23.2507 28.0139 23.1391L30.4514 20.7016C30.6217 20.5312 30.8387 20.4151 31.075 20.3679C31.3113 20.3208 31.5563 20.3447 31.779 20.4368Z" fill="#C73E00"/>
<path fill-rule="evenodd" clip-rule="evenodd" d="M23.1842 13.6124C25.6025 13.216 28.0495 13.0219 30.5 13.0323C33.4705 13.0323 35.9259 13.2939 37.8158 13.6124L38.0351 13.6498C39.6764 13.9244 41.0414 14.1535 42.1074 15.4665C42.7915 16.3099 43.0125 17.2215 43.0629 18.2371L43.8624 18.5036C44.6147 18.7539 45.2761 18.9749 45.7977 19.2186C46.3632 19.4819 46.8816 19.8199 47.2781 20.3708C47.6746 20.92 47.8322 21.5196 47.9037 22.1388C47.9687 22.7124 47.9687 23.4063 47.9687 24.2025V24.4365C47.9687 25.0898 47.9687 25.6666 47.92 26.1493C47.868 26.6709 47.7526 27.1795 47.465 27.6703C47.1741 28.1626 46.7857 28.5104 46.3551 28.8094C45.957 29.0856 45.4532 29.3668 44.8812 29.6836L40.5912 32.0675C39.7137 33.7916 38.5112 35.3289 36.8537 36.4388C35.4319 37.3926 33.7305 37.9971 31.7187 38.1694V41.4697H34.0425C34.6999 41.4698 35.3371 41.6976 35.8455 42.1144C36.3539 42.5313 36.7021 43.1114 36.831 43.7561L37.1869 45.5322H40.25C40.5732 45.5322 40.8832 45.6607 41.1118 45.8892C41.3403 46.1178 41.4687 46.4278 41.4687 46.751C41.4687 47.0742 41.3403 47.3842 41.1118 47.6128C40.8832 47.8413 40.5732 47.9697 40.25 47.9697H20.75C20.4268 47.9697 20.1168 47.8413 19.8882 47.6128C19.6597 47.3842 19.5312 47.0742 19.5312 46.751C19.5312 46.4278 19.6597 46.1178 19.8882 45.8892C20.1168 45.6607 20.4268 45.5322 20.75 45.5322H23.8131L24.169 43.7561C24.2979 43.1114 24.6461 42.5313 25.1545 42.1144C25.6629 41.6976 26.3001 41.4698 26.9575 41.4697H29.2812V38.1694C27.2695 37.9971 25.5681 37.3926 24.1462 36.4404C22.4904 35.3289 21.2862 33.7916 20.4087 32.0675L16.1187 29.6836C15.6139 29.4156 15.1221 29.1239 14.6449 28.8094C14.1954 28.5174 13.8168 28.1288 13.5366 27.6719C13.2727 27.2048 13.1167 26.6845 13.08 26.1493C13.0312 25.6666 13.0312 25.0898 13.0312 24.4365V24.2009C13.0312 23.4079 13.0312 22.7124 13.0962 22.1388C13.1677 21.5196 13.3237 20.92 13.7219 20.3708C14.1184 19.8199 14.6367 19.4819 15.2006 19.217C15.7255 18.9733 16.3852 18.7539 17.1376 18.5036L17.9371 18.2371C17.9875 17.2199 18.2085 16.3099 18.8926 15.4665C19.9602 14.1519 21.3236 13.9228 22.9665 13.6498L23.1842 13.6124ZM26.2994 45.5322H34.7006L34.4406 44.2339C34.4222 44.1418 34.3725 44.059 34.2999 43.9994C34.2273 43.9399 34.1364 43.9073 34.0425 43.9072H26.9575C26.8636 43.9073 26.7727 43.9399 26.7001 43.9994C26.6275 44.059 26.5778 44.1418 26.5594 44.2339L26.2994 45.5322ZM17.9907 20.7884C18.1077 23.2584 18.3856 25.9884 19.0811 28.5396L17.3489 27.5793C16.7167 27.2266 16.3202 27.0056 16.0342 26.8074C15.771 26.6238 15.6849 26.5149 15.6377 26.4336C15.589 26.3524 15.537 26.2256 15.5045 25.9071C15.47 25.3998 15.4581 24.8912 15.4687 24.3829V24.2643C15.4687 23.3884 15.4704 22.8343 15.5175 22.415C15.563 22.0283 15.6345 21.8836 15.6995 21.7959C15.7629 21.7065 15.8766 21.5928 16.2292 21.4286C16.6127 21.2499 17.1392 21.0728 17.968 20.7949L17.9907 20.7884ZM41.9189 28.5396L43.6511 27.5793C44.2832 27.2266 44.6797 27.0056 44.9657 26.8074C45.229 26.6238 45.3151 26.5149 45.3622 26.4336C45.411 26.3524 45.463 26.2256 45.4955 25.9071C45.5296 25.5594 45.5312 25.106 45.5312 24.3829V24.2643C45.5312 23.3884 45.5296 22.8343 45.4825 22.415C45.437 22.0283 45.3655 21.8836 45.3005 21.7959C45.2371 21.7065 45.1234 21.5928 44.7707 21.4286C44.3872 21.2499 43.8607 21.0728 43.032 20.7949L43.0092 20.7884C42.8939 23.2584 42.6127 25.9884 41.9189 28.5396ZM30.5 15.4698C27.6725 15.4698 25.3536 15.7184 23.5905 16.0158C21.6291 16.3473 21.218 16.4708 20.7857 17.0038C20.36 17.527 20.3194 18.0243 20.4055 20.2261C20.5517 23.8954 21.036 27.8571 22.5342 30.8699C23.2752 32.3551 24.2437 33.5706 25.5047 34.4156C26.756 35.2558 28.3729 35.7823 30.5 35.7823C32.6287 35.7823 34.244 35.2558 35.4969 34.4156C36.7579 33.5706 37.7247 32.3551 38.4641 30.8683C39.964 27.8571 40.4482 23.897 40.5929 20.2245C40.6822 18.0243 40.6416 17.527 40.2159 17.0038C39.7836 16.4708 39.3709 16.3473 37.4095 16.0158C35.1255 15.6421 32.8143 15.4594 30.5 15.4698Z" fill="#C73E00"/>
</svg>
