<svg width="39" height="39" viewBox="0 0 39 39" fill="none" xmlns="http://www.w3.org/2000/svg">
<path fill-rule="evenodd" clip-rule="evenodd" d="M12.1842 2.61238C14.6025 2.21597 17.0495 2.02192 19.5 2.03225C22.4705 2.03225 24.9259 2.29388 26.8158 2.61238L27.0351 2.64975C28.6764 2.92438 30.0414 3.1535 31.1074 4.4665C31.7915 5.30988 32.0125 6.2215 32.0629 7.23713L32.8624 7.50363C33.6147 7.75388 34.2761 7.97488 34.7977 8.21863C35.3632 8.48188 35.8816 8.81988 36.2781 9.37075C36.6746 9.92 36.8322 10.5196 36.9037 11.1388C36.9687 11.7124 36.9687 12.4063 36.9687 13.2025V13.4365C36.9687 14.0898 36.9687 14.6666 36.92 15.1493C36.868 15.6709 36.7526 16.1795 36.465 16.6703C36.1741 17.1626 35.7857 17.5104 35.3551 17.8094C34.957 18.0856 34.4532 18.3668 33.8812 18.6836L29.5912 21.0675C28.7137 22.7916 27.5112 24.3289 25.8537 25.4388C24.4319 26.3926 22.7305 26.9971 20.7187 27.1694V30.4697H23.0425C23.6999 30.4698 24.3371 30.6976 24.8455 31.1144C25.3539 31.5313 25.7021 32.1114 25.831 32.7561L26.1869 34.5322H29.25C29.5732 34.5322 29.8832 34.6607 30.1118 34.8892C30.3403 35.1178 30.4687 35.4278 30.4687 35.751C30.4687 36.0742 30.3403 36.3842 30.1118 36.6128C29.8832 36.8413 29.5732 36.9697 29.25 36.9697H9.75C9.42677 36.9697 9.11677 36.8413 8.88821 36.6128C8.65965 36.3842 8.53125 36.0742 8.53125 35.751C8.53125 35.4278 8.65965 35.1178 8.88821 34.8892C9.11677 34.6607 9.42677 34.5322 9.75 34.5322H12.8131L13.169 32.7561C13.2979 32.1114 13.6461 31.5313 14.1545 31.1144C14.6629 30.6976 15.3001 30.4698 15.9575 30.4697H18.2812V27.1694C16.2695 26.9971 14.5681 26.3926 13.1462 25.4404C11.4904 24.3289 10.2862 22.7916 9.40875 21.0675L5.11875 18.6836C4.61394 18.4156 4.1221 18.1239 3.64487 17.8094C3.19544 17.5174 2.81683 17.1288 2.53662 16.6719C2.27269 16.2048 2.11667 15.6845 2.08 15.1493C2.03125 14.6666 2.03125 14.0898 2.03125 13.4365V13.2009C2.03125 12.4079 2.03125 11.7124 2.09625 11.1388C2.16775 10.5196 2.32375 9.92 2.72187 9.37075C3.11837 8.81988 3.63675 8.48188 4.20062 8.217C4.7255 7.97325 5.38525 7.75388 6.13762 7.50363L6.93712 7.23713C6.9875 6.21988 7.2085 5.30988 7.89262 4.4665C8.96025 3.15188 10.3236 2.92275 11.9665 2.64975L12.1842 2.61238ZM15.2994 34.5322H23.7006L23.4406 33.2339C23.4222 33.1418 23.3725 33.059 23.2999 32.9994C23.2273 32.9399 23.1364 32.9073 23.0425 32.9072H15.9575C15.8636 32.9073 15.7727 32.9399 15.7001 32.9994C15.6275 33.059 15.5778 33.1418 15.5594 33.2339L15.2994 34.5322ZM6.99075 9.78838C7.10775 12.2584 7.38562 14.9884 8.08112 17.5396L6.34887 16.5793C5.71675 16.2266 5.32025 16.0056 5.03425 15.8074C4.771 15.6238 4.68488 15.5149 4.63775 15.4336C4.589 15.3524 4.537 15.2256 4.5045 14.9071C4.47005 14.3998 4.45812 13.8912 4.46875 13.3829V13.2643C4.46875 12.3884 4.47037 11.8343 4.5175 11.415C4.563 11.0283 4.6345 10.8836 4.6995 10.7959C4.76287 10.7065 4.87662 10.5928 5.22925 10.4286C5.61275 10.2499 6.13925 10.0728 6.968 9.79488L6.99075 9.78838ZM30.9189 17.5396L32.6511 16.5793C33.2832 16.2266 33.6797 16.0056 33.9657 15.8074C34.229 15.6238 34.3151 15.5149 34.3622 15.4336C34.411 15.3524 34.463 15.2256 34.4955 14.9071C34.5296 14.5594 34.5312 14.106 34.5312 13.3829V13.2643C34.5312 12.3884 34.5296 11.8343 34.4825 11.415C34.437 11.0283 34.3655 10.8836 34.3005 10.7959C34.2371 10.7065 34.1234 10.5928 33.7707 10.4286C33.3872 10.2499 32.8607 10.0728 32.032 9.79488L32.0092 9.78838C31.8939 12.2584 31.6127 14.9884 30.9189 17.5396ZM19.5 4.46975C16.6725 4.46975 14.3536 4.71838 12.5905 5.01575C10.6291 5.34725 10.218 5.47075 9.78575 6.00375C9.36 6.527 9.31937 7.02425 9.4055 9.22613C9.55175 12.8954 10.036 16.8571 11.5342 19.8699C12.2752 21.3551 13.2437 22.5706 14.5047 23.4156C15.756 24.2558 17.3729 24.7823 19.5 24.7823C21.6287 24.7823 23.244 24.2558 24.4969 23.4156C25.7579 22.5706 26.7247 21.3551 27.4641 19.8683C28.964 16.8571 29.4482 12.897 29.5929 9.2245C29.6822 7.02425 29.6416 6.527 29.2159 6.00375C28.7836 5.47075 28.3709 5.34725 26.4095 5.01575C24.1255 4.64207 21.8143 4.45944 19.5 4.46975Z" fill="#C73E00"/>
<path d="M19.4385 18.6667V10.5798H19.3223L16.8682 12.3024V10.6071L19.4453 8.80243H21.2021V18.6667H19.4385Z" fill="#C73E00"/>
</svg>
