<svg width="32" height="32" viewBox="0 0 32 32" fill="none" xmlns="http://www.w3.org/2000/svg">
<path d="M14.4084 19.9473C14.4084 22.1312 17.9517 23.9036 22.3212 23.9036C26.6906 23.9036 30.2339 22.1312 30.2339 19.9473M1.74805 12.0345C1.74805 14.2184 5.29137 15.9909 9.66078 15.9909C11.4427 15.9909 13.087 15.6965 14.4084 15.1996M1.74805 17.5734C1.74805 19.7574 5.29137 21.5298 9.66078 21.5298C11.4427 21.5298 13.0854 21.2355 14.4084 20.7385M22.3212 17.5734C17.9517 17.5734 14.4084 15.801 14.4084 13.6171C14.4084 11.4332 17.9517 9.66071 22.3212 9.66071C26.6906 9.66071 30.2339 11.4332 30.2339 13.6171C30.2339 15.801 26.6906 17.5734 22.3212 17.5734Z" stroke="#222222" stroke-width="2.37382" stroke-linecap="round" stroke-linejoin="round"/>
<path d="M1.74805 5.70424V23.1123C1.74805 25.2962 5.29137 27.0686 9.66078 27.0686C11.4427 27.0686 13.0854 26.7743 14.4084 26.2774M14.4084 26.2774V13.617M14.4084 26.2774C14.4084 28.4613 17.9517 30.2337 22.3212 30.2337C26.6906 30.2337 30.2339 28.4613 30.2339 26.2774V13.617M17.5735 10.4519V5.70424" stroke="#222222" stroke-width="2.37382" stroke-linecap="round" stroke-linejoin="round"/>
<path d="M9.66078 9.66036C5.29137 9.66036 1.74805 7.8879 1.74805 5.70399C1.74805 3.52007 5.29137 1.74762 9.66078 1.74762C14.0302 1.74762 17.5735 3.52007 17.5735 5.70399C17.5735 7.8879 14.0302 9.66036 9.66078 9.66036Z" stroke="#222222" stroke-width="2.37382" stroke-linecap="round" stroke-linejoin="round"/>
</svg>
