<svg width="61" height="61" viewBox="0 0 61 61" fill="none" xmlns="http://www.w3.org/2000/svg">
<circle opacity="0.1" cx="30.5" cy="30.5" r="30.5" fill="#C73E00"/>
<path d="M36.8243 28.2377V28.2549M19.893 23.7201C19.1374 23.1394 18.557 22.3609 18.216 21.4709C17.8751 20.5809 17.7869 19.6139 17.9611 18.6769C18.1354 17.7399 18.5653 16.8693 19.2034 16.1613C19.8416 15.4534 20.663 14.9356 21.5769 14.6653C22.4909 14.395 23.4618 14.3827 24.3823 14.6297C25.3028 14.8767 26.1371 15.3734 26.793 16.0649C27.4489 16.7564 27.9008 17.6158 28.0989 18.5481C28.2969 19.4804 28.2332 20.4493 27.915 21.3477" stroke="#C73E00" stroke-width="2.64183" stroke-linecap="round" stroke-linejoin="round"/>
<path d="M38.547 16.1777V22.7301C40.6794 23.9639 42.3028 25.9165 43.1266 28.2383H45.4371C45.894 28.2383 46.3322 28.4198 46.6554 28.7429C46.9785 29.066 47.16 29.5043 47.16 29.9612V33.4071C47.16 33.864 46.9785 34.3023 46.6554 34.6254C46.3322 34.9485 45.894 35.13 45.4371 35.13H43.1249C42.546 36.7668 41.5622 38.2313 40.2683 39.3908V42.8832C40.2683 43.5686 39.996 44.226 39.5113 44.7107C39.0266 45.1953 38.3693 45.4676 37.6839 45.4676C36.9984 45.4676 36.3411 45.1953 35.8564 44.7107C35.3717 44.226 35.0995 43.5686 35.0995 42.8832V41.8787C34.5301 41.9741 33.9538 42.0219 33.3765 42.0217H26.4848C25.9075 42.0219 25.3312 41.9741 24.7618 41.8787V42.8832C24.7618 43.5686 24.4896 44.226 24.0049 44.7107C23.5202 45.1953 22.8629 45.4676 22.1774 45.4676C21.492 45.4676 20.8347 45.1953 20.35 44.7107C19.8653 44.226 19.593 43.5686 19.593 42.8832V39.3908C18.032 37.9952 16.9316 36.1584 16.4375 34.1236C15.9433 32.0888 16.0788 29.9519 16.8259 27.9957C17.573 26.0396 18.8966 24.3565 20.6214 23.1691C22.3461 21.9818 24.3908 21.3462 26.4848 21.3465H30.7921L38.5453 16.1777H38.547Z" stroke="#C73E00" stroke-width="2.64183" stroke-linecap="round" stroke-linejoin="round"/>
</svg>
