<svg width="78" height="78" viewBox="0 0 78 78" fill="none" xmlns="http://www.w3.org/2000/svg">
<g clip-path="url(#clip0_902_2570)">
<circle opacity="0.1" cx="39" cy="39" r="39" fill="#C73E00"/>
<path fill-rule="evenodd" clip-rule="evenodd" d="M24.286 27.6194C22.3333 29.572 22.3333 32.7147 22.3333 39.0001C22.3333 45.2855 22.3333 48.4282 24.286 50.3808C26.2386 52.3334 29.3813 52.3334 35.6667 52.3334H42.3333C48.6187 52.3334 51.7614 52.3334 53.7141 50.3808C55.6667 48.4282 55.6667 45.2855 55.6667 39.0001C55.6667 32.7147 55.6667 29.572 53.7141 27.6194C51.7614 25.6667 48.6187 25.6667 42.3333 25.6667H35.6667C29.3813 25.6667 26.2386 25.6667 24.286 27.6194ZM49.9603 31.5332C50.4022 32.0635 50.3306 32.8517 49.8002 33.2937L46.1394 36.3444C44.6622 37.5755 43.4648 38.5733 42.408 39.253C41.3072 39.961 40.2351 40.4082 39 40.4082C37.7649 40.4082 36.6928 39.961 35.592 39.253C34.5352 38.5733 33.3379 37.5755 31.8606 36.3444L28.1998 33.2937C27.6694 32.8517 27.5978 32.0635 28.0397 31.5332C28.4817 31.0028 29.2699 30.9312 29.8002 31.3731L33.3984 34.3716C34.9533 35.6674 36.0329 36.5641 36.9443 37.1503C37.8266 37.7177 38.4249 37.9082 39 37.9082C39.5751 37.9082 40.1734 37.7177 41.0557 37.1503C41.9671 36.5641 43.0467 35.6674 44.6016 34.3716L48.1998 31.3731C48.7301 30.9312 49.5183 31.0028 49.9603 31.5332Z" fill="#C73E00"/>
</g>
<defs>
<clipPath id="clip0_902_2570">
<rect width="78" height="78" rx="39" fill="white"/>
</clipPath>
</defs>
</svg>
