<svg width="78" height="78" viewBox="0 0 78 78" fill="none" xmlns="http://www.w3.org/2000/svg">
<g clip-path="url(#clip0_902_2554)">
<circle opacity="0.1" cx="39" cy="39" r="39" fill="#C73E00"/>
<path fill-rule="evenodd" clip-rule="evenodd" d="M55.6666 38.9999C55.6666 48.2047 48.2047 55.6666 39 55.6666C36.3338 55.6666 33.8139 55.0406 31.5792 53.9275C30.9853 53.6317 30.3065 53.5332 29.6656 53.7047L25.9556 54.6974C24.345 55.1283 22.8716 53.6549 23.3025 52.0443L24.2952 48.3343C24.4667 47.6934 24.3682 47.0146 24.0724 46.4207C22.9593 44.186 22.3333 41.6661 22.3333 38.9999C22.3333 29.7952 29.7952 22.3333 39 22.3333C48.2047 22.3333 55.6666 29.7952 55.6666 38.9999ZM31.5 37.5139C31.5 39.7946 33.698 42.1876 35.7143 43.9028C37.0874 45.0709 37.7739 45.655 39 45.655C40.226 45.655 40.9126 45.071 42.2857 43.9028C44.3019 42.1876 46.5 39.7947 46.5 37.5139C46.5 33.052 42.3749 31.3861 39 34.8329C35.6251 31.3861 31.5 33.052 31.5 37.5139Z" fill="#C73E00"/>
</g>
<defs>
<clipPath id="clip0_902_2554">
<rect width="78" height="78" rx="39" fill="white"/>
</clipPath>
</defs>
</svg>
