<svg width="61" height="61" viewBox="0 0 61 61" fill="none" xmlns="http://www.w3.org/2000/svg">
<circle opacity="0.1" cx="30.5" cy="30.5" r="30.5" fill="#C73E00"/>
<g clip-path="url(#clip0_469_4419)">
<path d="M32.3261 45.2532H27.879C26.7518 45.2532 25.833 44.3344 25.833 43.2072V20.6026C25.833 19.4754 26.7498 18.5586 27.879 18.5586H32.3261C33.4532 18.5586 34.37 19.4754 34.37 20.6026V43.2072C34.37 44.3344 33.4532 45.2532 32.3261 45.2532ZM28.8097 42.2765H31.3934V21.5352H28.8097V42.2765Z" fill="#C73E00" stroke="#FAECE6" stroke-width="0.533055"/>
<path d="M21.9071 45.2521H17.46C16.3329 45.2521 15.4141 44.3333 15.4141 43.2061V29.5314C15.4141 28.4042 16.3309 27.4874 17.46 27.4874H21.9071C23.0343 27.4874 23.9511 28.4042 23.9511 29.5314V43.2061C23.9511 44.3333 23.0343 45.2521 21.9071 45.2521ZM18.3907 42.2754H20.9744V30.4641H18.3907V42.2754Z" fill="#C73E00" stroke="#FAECE6" stroke-width="0.533055"/>
<path d="M42.7938 45.253H38.3487C37.2215 45.253 36.3047 44.3342 36.3047 43.207V15.044C36.3047 13.9168 37.2215 13 38.3487 13H42.7938C43.919 13 44.8358 13.9168 44.8358 15.044V43.207C44.8378 44.3342 43.9209 45.253 42.7938 45.253ZM39.2813 42.2763H41.8611V15.9767H39.2813V42.2763Z" fill="#C73E00" stroke="#FAECE6" stroke-width="0.533055"/>
</g>
<defs>
<clipPath id="clip0_469_4419">
<rect width="32.253" height="32.253" fill="white" transform="translate(14 13)"/>
</clipPath>
</defs>
</svg>
