<svg width="61" height="61" viewBox="0 0 61 61" fill="none" xmlns="http://www.w3.org/2000/svg">
<circle opacity="0.1" cx="30.5" cy="30.5" r="30.5" fill="#C73E00"/>
<path d="M37.5 32.2C38.4389 32.2 39.2 31.4389 39.2 30.5C39.2 29.5611 38.4389 28.8 37.5 28.8C36.5611 28.8 35.8 29.5611 35.8 30.5C35.8 31.4389 36.5611 32.2 37.5 32.2ZM37.5 38.2C38.4389 38.2 39.2 37.4389 39.2 36.5C39.2 35.5611 38.4389 34.8 37.5 34.8C36.5611 34.8 35.8 35.5611 35.8 36.5C35.8 37.4389 36.5611 38.2 37.5 38.2ZM30 32.2C30.9389 32.2 31.7 31.4389 31.7 30.5C31.7 29.5611 30.9389 28.8 30 28.8C29.0611 28.8 28.3 29.5611 28.3 30.5C28.3 31.4389 29.0611 32.2 30 32.2ZM30 38.2C30.9389 38.2 31.7 37.4389 31.7 36.5C31.7 35.5611 30.9389 34.8 30 34.8C29.0611 34.8 28.3 35.5611 28.3 36.5C28.3 37.4389 29.0611 38.2 30 38.2ZM22.5 32.2C23.4389 32.2 24.2 31.4389 24.2 30.5C24.2 29.5611 23.4389 28.8 22.5 28.8C21.5611 28.8 20.8 29.5611 20.8 30.5C20.8 31.4389 21.5611 32.2 22.5 32.2ZM22.5 38.2C23.4389 38.2 24.2 37.4389 24.2 36.5C24.2 35.5611 23.4389 34.8 22.5 34.8C21.5611 34.8 20.8 35.5611 20.8 36.5C20.8 37.4389 21.5611 38.2 22.5 38.2ZM23.825 14.75C23.825 14.0182 23.2318 13.425 22.5 13.425C21.7682 13.425 21.175 14.0182 21.175 14.75V15.806C20.8494 15.8333 20.5378 15.8664 20.2398 15.9065C18.4591 16.1459 16.9864 16.6545 15.8204 17.8204C14.6545 18.9864 14.1459 20.4591 13.9065 22.2398C13.675 23.9619 13.675 26.1562 13.675 28.9007L13.675 28.9154V32.0846L13.675 32.0993C13.675 34.8438 13.675 37.0381 13.9065 38.7602C14.1459 40.5409 14.6545 42.0136 15.8204 43.1796C16.9864 44.3455 18.4591 44.8541 20.2398 45.0935C21.9619 45.325 24.1563 45.325 26.9008 45.325H26.9154H33.0847H33.0993C35.8438 45.325 38.0381 45.325 39.7602 45.0935C41.5409 44.8541 43.0136 44.3455 44.1796 43.1796C45.3455 42.0136 45.8541 40.5409 46.0935 38.7602C46.325 37.0381 46.325 34.8436 46.325 32.0991V32.0846V28.9153V28.9008C46.325 26.1563 46.325 23.9619 46.0935 22.2398C45.8541 20.4591 45.3455 18.9864 44.1796 17.8204C43.0136 16.6545 41.5409 16.1459 39.7602 15.9065C39.4622 15.8664 39.1506 15.8333 38.825 15.806V14.75C38.825 14.0182 38.2318 13.425 37.5 13.425C36.7682 13.425 36.175 14.0182 36.175 14.75V15.6905C35.2348 15.675 34.2066 15.675 33.086 15.675H33.0846H26.9152H26.9138C25.7932 15.675 24.7652 15.675 23.825 15.6905V14.75ZM17.6943 19.6943C18.2858 19.1028 19.1061 18.7328 20.5929 18.5329C22.118 18.3278 24.134 18.325 27 18.325H33C35.866 18.325 37.882 18.3278 39.4071 18.5329C40.8939 18.7328 41.7142 19.1028 42.3057 19.6943C42.8972 20.2858 43.2672 21.1061 43.4671 22.5929C43.4922 22.7791 43.5142 22.9729 43.5336 23.175H16.4664C16.4858 22.9729 16.5078 22.7791 16.5329 22.5929C16.7328 21.1061 17.1028 20.2858 17.6943 19.6943ZM16.325 29C16.325 27.8035 16.3254 26.754 16.341 25.825H43.659C43.6746 26.754 43.675 27.8035 43.675 29V32C43.675 34.866 43.6722 36.882 43.4671 38.4071C43.2672 39.8939 42.8972 40.7142 42.3057 41.3057C41.7142 41.8972 40.8939 42.2672 39.4071 42.4671C37.882 42.6722 35.866 42.675 33 42.675H27C24.134 42.675 22.118 42.6722 20.5929 42.4671C19.1061 42.2672 18.2858 41.8972 17.6943 41.3057C17.1028 40.7142 16.7328 39.8939 16.5329 38.4071C16.3278 36.882 16.325 34.866 16.325 32V29Z" fill="#C73E00" stroke="#C73E00" stroke-width="0.4"/>
</svg>
