<svg width="78" height="78" viewBox="0 0 78 78" fill="none" xmlns="http://www.w3.org/2000/svg">
<g clip-path="url(#clip0_902_2561)">
<circle opacity="0.1" cx="39" cy="39" r="39" fill="#C73E00"/>
<path d="M34.8333 50.3333V53.6666C34.8333 54.3569 35.393 54.9166 36.0833 54.9166C36.7737 54.9166 37.3333 54.3569 37.3333 53.6666V50.3333H34.8333Z" fill="#C73E00"/>
<path d="M44 50.3333H41.5V53.6666C41.5 54.3569 42.0596 54.9166 42.75 54.9166C43.4404 54.9166 44 54.3569 44 53.6666V50.3333Z" fill="#C73E00"/>
<path fill-rule="evenodd" clip-rule="evenodd" d="M47.9743 27.9744L48.4011 27.889C49.094 27.7503 49.8105 27.8165 50.4689 28.0801C51.6194 28.5408 52.8776 28.6269 54.0763 28.3269L54.1788 28.3012C55.0516 28.0828 55.6667 27.2716 55.6667 26.3388V22.788C55.6667 21.5583 54.5597 20.6523 53.409 20.9403C52.7483 21.1056 52.0547 21.0582 51.4206 20.8043L51.2988 20.7555C50.237 20.3304 49.0818 20.2236 47.9645 20.4473L47.2167 20.597C46.3169 20.7771 45.6667 21.5953 45.6667 22.5473V34.1344C45.6667 34.7965 46.1833 35.3333 46.8205 35.3333C47.4578 35.3333 47.9743 34.7965 47.9743 34.1344V27.9744Z" fill="#C73E00"/>
<path d="M43.1667 27V34.1345C43.1667 36.0864 44.7133 37.8333 46.8205 37.8333C48.9277 37.8333 50.4744 36.0864 50.4744 34.1345V30.7133C51.7425 31.0556 53.0744 31.0956 54.3667 30.8249C55.187 32.2279 55.6667 33.9236 55.6667 35.75V46.0421C55.6667 48.4121 54.0199 50.3333 51.9885 50.3333H39.8333V35.75C39.8333 32.3669 38.4465 29.1267 36.1376 27H43.1667Z" fill="#C73E00"/>
<path fill-rule="evenodd" clip-rule="evenodd" d="M22.3333 35.75C22.3333 30.9175 25.6912 27 29.8333 27C33.9755 27 37.3333 30.9175 37.3333 35.75V50.3333H26.0543C23.9993 50.3333 22.3333 48.3898 22.3333 45.9922V35.75ZM26.0833 43.6667C26.0833 42.9763 26.643 42.4167 27.3333 42.4167H32.3333C33.0237 42.4167 33.5833 42.9763 33.5833 43.6667C33.5833 44.357 33.0237 44.9167 32.3333 44.9167H27.3333C26.643 44.9167 26.0833 44.357 26.0833 43.6667Z" fill="#C73E00"/>
</g>
<defs>
<clipPath id="clip0_902_2561">
<rect width="78" height="78" rx="39" fill="white"/>
</clipPath>
</defs>
</svg>
