<svg width="61" height="61" viewBox="0 0 61 61" fill="none" xmlns="http://www.w3.org/2000/svg">
<circle opacity="0.1" cx="30.5" cy="30.5" r="30.5" fill="#C73E00"/>
<path d="M28.9182 34.4567C28.9182 36.6406 32.4615 38.4131 36.8309 38.4131C41.2003 38.4131 44.7437 36.6406 44.7437 34.4567M16.2578 26.544C16.2578 28.7279 19.8011 30.5004 24.1705 30.5004C25.9525 30.5004 27.5968 30.206 28.9182 29.7091M16.2578 32.0829C16.2578 34.2668 19.8011 36.0393 24.1705 36.0393C25.9525 36.0393 27.5952 35.7449 28.9182 35.248M36.8309 32.0829C32.4615 32.0829 28.9182 30.3104 28.9182 28.1265C28.9182 25.9426 32.4615 24.1702 36.8309 24.1702C41.2003 24.1702 44.7437 25.9426 44.7437 28.1265C44.7437 30.3104 41.2003 32.0829 36.8309 32.0829Z" stroke="#C73E00" stroke-width="2.37382" stroke-linecap="round" stroke-linejoin="round"/>
<path d="M16.2578 20.2137V37.6217C16.2578 39.8056 19.8011 41.5781 24.1705 41.5781C25.9525 41.5781 27.5952 41.2837 28.9182 40.7868M28.9182 40.7868V28.1264M28.9182 40.7868C28.9182 42.9707 32.4615 44.7432 36.8309 44.7432C41.2003 44.7432 44.7437 42.9707 44.7437 40.7868V28.1264M32.0833 24.9613V20.2137" stroke="#C73E00" stroke-width="2.37382" stroke-linecap="round" stroke-linejoin="round"/>
<path d="M24.1705 24.1698C19.8011 24.1698 16.2578 22.3974 16.2578 20.2134C16.2578 18.0295 19.8011 16.2571 24.1705 16.2571C28.54 16.2571 32.0833 18.0295 32.0833 20.2134C32.0833 22.3974 28.54 24.1698 24.1705 24.1698Z" stroke="#C73E00" stroke-width="2.37382" stroke-linecap="round" stroke-linejoin="round"/>
</svg>
