<svg width="61" height="61" viewBox="0 0 61 61" fill="none" xmlns="http://www.w3.org/2000/svg">
<circle opacity="0.1" cx="30.5" cy="30.5" r="30.5" fill="#C73E00"/>
<path d="M44.1295 22.7412H38.8958C38.954 22.6919 39.0137 22.6442 39.0704 22.592C39.5235 22.1894 39.8887 21.6977 40.1431 21.1476C40.3975 20.5974 40.5356 20.0007 40.5489 19.3948C40.5685 18.7319 40.4524 18.072 40.2077 17.4555C39.9631 16.8391 39.595 16.2792 39.1261 15.8102C38.6572 15.3412 38.0974 14.973 37.4811 14.7281C36.8648 14.4833 36.2049 14.367 35.542 14.3864C34.9357 14.3994 34.3387 14.5375 33.7883 14.7919C33.2379 15.0463 32.746 15.4116 32.3432 15.8649C31.786 16.5107 31.3329 17.2396 31.0005 18.0252C30.6681 17.2396 30.215 16.5107 29.6578 15.8649C29.255 15.4116 28.7631 15.0463 28.2127 14.7919C27.6623 14.5375 27.0653 14.3994 26.4591 14.3864C25.7961 14.367 25.1363 14.4833 24.5199 14.7281C23.9036 14.973 23.3438 15.3412 22.8749 15.8102C22.406 16.2792 22.0379 16.8391 21.7933 17.4555C21.5486 18.072 21.4325 18.7319 21.4521 19.3948C21.4654 20.0007 21.6035 20.5974 21.8579 21.1476C22.1123 21.6977 22.4775 22.1894 22.9306 22.592C22.9873 22.6412 23.047 22.689 23.1052 22.7412H17.8715C17.2384 22.7412 16.6312 22.9927 16.1835 23.4403C15.7359 23.888 15.4844 24.4952 15.4844 25.1283V29.9024C15.4844 30.5355 15.7359 31.1427 16.1835 31.5904C16.6312 32.038 17.2384 32.2895 17.8715 32.2895V41.8379C17.8715 42.471 18.123 43.0781 18.5706 43.5258C19.0183 43.9735 19.6255 44.225 20.2586 44.225H41.7424C42.3755 44.225 42.9827 43.9735 43.4304 43.5258C43.878 43.0781 44.1295 42.471 44.1295 41.8379V32.2895C44.7626 32.2895 45.3698 32.038 45.8175 31.5904C46.2651 31.1427 46.5166 30.5355 46.5166 29.9024V25.1283C46.5166 24.4952 46.2651 23.888 45.8175 23.4403C45.3698 22.9927 44.7626 22.7412 44.1295 22.7412ZM34.1336 17.4463C34.3225 17.2376 34.5526 17.0703 34.8094 16.9547C35.0661 16.8392 35.344 16.778 35.6255 16.7749H35.6986C36.0286 16.777 36.3548 16.8449 36.6582 16.9747C36.9616 17.1044 37.236 17.2934 37.4654 17.5306C37.6948 17.7678 37.8746 18.0484 37.9942 18.3559C38.1138 18.6635 38.1707 18.9918 38.1618 19.3217C38.1588 19.6032 38.0976 19.881 37.982 20.1378C37.8665 20.3945 37.6991 20.6246 37.4904 20.8136C36.0746 22.0668 33.7248 22.5084 32.2687 22.6636C32.4477 21.0836 32.94 18.7876 34.1336 17.4463ZM24.5718 17.5C25.0342 17.0377 25.6604 16.7765 26.3143 16.7734H26.3874C26.669 16.7765 26.9468 16.8377 27.2036 16.9532C27.4603 17.0688 27.6904 17.2361 27.8794 17.4448C29.1311 18.8592 29.5727 21.2045 29.7279 22.6546C28.2777 22.5054 25.9324 22.0579 24.518 20.8061C24.3094 20.6172 24.142 20.3871 24.0265 20.1303C23.9109 19.8736 23.8497 19.5957 23.8467 19.3142C23.8374 18.9789 23.8964 18.6452 24.02 18.3333C24.1436 18.0214 24.3293 17.7379 24.5658 17.5H24.5718ZM17.8715 25.1283H29.807V29.9024H17.8715V25.1283ZM20.2586 32.2895H29.807V41.8379H20.2586V32.2895ZM41.7424 41.8379H32.1941V32.2895H41.7424V41.8379ZM44.1295 29.9024H32.1941V25.1283H44.1295V29.9024Z" fill="#C73E00" stroke="#FAECE6" stroke-width="0.0969696"/>
</svg>
