<svg width="61" height="61" viewBox="0 0 61 61" fill="none" xmlns="http://www.w3.org/2000/svg">
<circle opacity="0.1" cx="30.5" cy="30.5" r="30.5" fill="#C73E00"/>
<path d="M37.5968 40.2994L37.44 40.3242C37.4714 40.5226 37.4635 40.7252 37.4167 40.9205C37.3698 41.1158 37.285 41.2999 37.167 41.4624C37.0489 41.6249 36.9001 41.7625 36.7289 41.8675C36.5577 41.9725 36.3674 42.0427 36.1691 42.0741C35.9708 42.1056 35.7682 42.0977 35.5729 42.0508C35.3776 42.004 35.1934 41.9191 35.0309 41.8011C34.8685 41.6831 34.7308 41.5342 34.6258 41.363C34.5209 41.1918 34.4507 41.0016 34.4192 40.8032L34.4192 40.8031C34.0758 38.6515 32.9765 36.6928 31.3188 35.2787C29.6612 33.8646 27.5537 33.0879 25.3748 33.0879C23.196 33.0879 21.0885 33.8646 19.4308 35.2787C17.7732 36.6928 16.6739 38.6515 16.3305 40.8031L16.3305 40.8031C16.2989 41.0015 16.2286 41.1917 16.1235 41.3628C16.0184 41.534 15.8806 41.6828 15.718 41.8007L15.8113 41.9293L15.718 41.8007C15.5554 41.9186 15.3712 42.0034 15.1759 42.0501C14.9805 42.0968 14.7779 42.1046 14.5796 42.073C14.3812 42.0414 14.191 41.9711 14.0199 41.866C13.8487 41.7609 13.6999 41.6231 13.582 41.4606C13.4641 41.298 13.3793 41.1137 13.3326 40.9184C13.2859 40.7231 13.2781 40.5204 13.3097 40.3221C13.6214 38.3805 14.3967 36.5426 15.5698 34.9643C16.7429 33.386 18.2793 32.1138 20.0487 31.2555L20.2563 31.1548L20.0881 30.9968C19.3202 30.2758 18.7084 29.4049 18.2905 28.438C17.8726 27.471 17.6576 26.4286 17.6587 25.3753V25.3751C17.6585 24.0961 17.9763 22.8372 18.5834 21.7115C19.1904 20.5858 20.0678 19.6287 21.1366 18.9262C22.2053 18.2237 23.4319 17.7979 24.7061 17.687C25.9802 17.5762 27.262 17.7838 28.436 18.2912C29.61 18.7985 30.6395 19.5898 31.4318 20.5937C32.2242 21.5977 32.7546 22.7828 32.9753 24.0426C33.196 25.3024 33.1001 26.5973 32.6962 27.8108C32.2923 29.0243 31.5931 30.1184 30.6615 30.9947L30.4936 31.1526L30.701 31.2533C32.4708 32.1121 34.0075 33.385 35.1806 34.9642C36.3538 36.5433 37.1288 38.3821 37.44 40.3245L37.5968 40.2994ZM37.5968 40.2994C37.2816 38.3317 36.4965 36.4691 35.3081 34.8695C34.1534 33.3151 32.6511 32.0537 30.9221 31.1853M37.5968 40.2994C37.6316 40.5183 37.6228 40.742 37.5711 40.9575C37.5194 41.1731 37.4257 41.3764 37.2955 41.5557C37.1652 41.7351 37.0009 41.887 36.8119 42.0029C36.6229 42.1188 36.4129 42.1963 36.194 42.231C35.975 42.2657 35.7514 42.257 35.5358 42.2052C35.3203 42.1535 35.117 42.0599 34.9376 41.9296C34.7582 41.7993 34.6063 41.635 34.4904 41.446C34.3746 41.257 34.2971 41.0471 34.2623 40.8281C33.9249 38.7138 32.8447 36.7891 31.2158 35.3995C29.5869 34.01 27.5159 33.2467 25.3748 33.2467C23.2338 33.2467 21.1628 34.01 19.5339 35.3995C17.905 36.7891 16.8248 38.7138 16.4873 40.8281L30.9221 31.1853M30.9221 31.1853C30.9079 31.1989 30.8935 31.2125 30.8792 31.2261L30.7703 31.1104L30.8397 30.9675C30.8572 30.976 30.8748 30.9846 30.8923 30.9932C31.7822 30.1193 32.4525 29.0459 32.8469 27.8609C33.2591 26.6224 33.357 25.3009 33.1317 24.0152C32.9065 22.7295 32.3652 21.52 31.5565 20.4953C30.7478 19.4707 29.6972 18.6632 28.499 18.1454C27.3008 17.6275 25.9927 17.4157 24.6923 17.5288C23.392 17.6419 22.1401 18.0765 21.0493 18.7934C19.9586 19.5104 19.0631 20.4872 18.4436 21.6361C17.824 22.785 17.4997 24.0698 17.4998 25.3751L30.9221 31.1853ZM42.6272 33.1839L42.486 33.3394L42.6742 33.4329C44.0245 34.1032 45.2242 35.0412 46.2005 36.1899C47.1767 37.3385 47.9091 38.6738 48.3531 40.1144L48.3533 40.1153C48.4341 40.3722 48.4455 40.6459 48.3863 40.9086C48.3271 41.1714 48.1994 41.4138 48.0163 41.6112C47.8331 41.8087 47.6009 41.9541 47.3434 42.0329C47.0858 42.1116 46.812 42.1208 46.5498 42.0595L46.5496 42.0594C46.2875 41.9984 46.046 41.8694 45.8496 41.6854C45.6531 41.5015 45.5085 41.269 45.4303 41.0115L45.4301 41.0107C45.0187 39.6799 44.2691 38.4787 43.2544 37.5244C42.2398 36.5701 40.9949 35.8954 39.6414 35.5663L39.6411 35.5662C39.3073 35.4856 39.0104 35.295 38.7982 35.0251C38.5859 34.7552 38.4707 34.4217 38.4712 34.0783V34.0781V33.2861V33.286C38.471 33.0014 38.5503 32.7224 38.7001 32.4804C38.8499 32.2384 39.0643 32.0431 39.3191 31.9163C40.0332 31.5623 40.6067 30.9774 40.9464 30.2563C41.2862 29.5353 41.3722 28.7205 41.1904 27.9444C41.0087 27.1683 40.5698 26.4764 39.9453 25.9811C39.3207 25.4859 38.547 25.2163 37.7499 25.2163C37.3444 25.2163 36.9556 25.0552 36.6689 24.7686C36.3822 24.4819 36.2212 24.093 36.2212 23.6876C36.2212 23.2822 36.3822 22.8934 36.6689 22.6067C36.9556 22.32 37.3443 22.159 37.7497 22.1589C39.0263 22.1598 40.2751 22.5313 41.3446 23.2281C42.4141 23.925 43.2584 24.9174 43.7748 26.0848C44.2913 27.2522 44.4578 28.5444 44.2541 29.8045C44.0504 31.0647 43.4852 32.2387 42.6272 33.1839ZM25.3784 20.7163C24.758 20.7023 24.1411 20.8124 23.5638 21.0401C22.9865 21.2677 22.4605 21.6085 22.0167 22.0422C21.5729 22.476 21.2202 22.9941 20.9794 23.566C20.7386 24.1379 20.6144 24.7522 20.6143 25.3728C20.6141 25.9934 20.738 26.6077 20.9785 27.1798C21.219 27.7518 21.5714 28.2701 22.015 28.7041C22.4586 29.138 22.9844 29.479 23.5616 29.707C24.1388 29.935 24.7557 30.0454 25.3761 30.0317C26.5934 30.0047 27.7517 29.5024 28.6032 28.632C29.4547 27.7617 29.9316 26.5927 29.9319 25.3751C29.9322 24.1576 29.4559 22.9883 28.6048 22.1175C27.7538 21.2468 26.5957 20.7439 25.3784 20.7163Z" fill="#C73E00" stroke="white" stroke-width="0.317647"/>
</svg>
