<svg width="17" height="17" viewBox="0 0 17 17" fill="none" xmlns="http://www.w3.org/2000/svg">
<path d="M9.09505 1.32363L11.0258 5.22149C11.0697 5.32042 11.1388 5.40612 11.2261 5.47003C11.3135 5.53395 11.416 5.57386 11.5236 5.58577L15.7858 6.2172C15.9092 6.23306 16.0255 6.28371 16.1212 6.36323C16.2169 6.44274 16.288 6.54784 16.3262 6.66626C16.3644 6.78468 16.3681 6.91151 16.3369 7.03196C16.3057 7.15241 16.2409 7.2615 16.15 7.34649L13.0779 10.3943C12.9995 10.4676 12.9407 10.5593 12.9067 10.6611C12.8728 10.7629 12.8648 10.8716 12.8836 10.9772L13.6243 15.2636C13.6458 15.3868 13.6322 15.5135 13.5852 15.6294C13.5382 15.7452 13.4596 15.8455 13.3584 15.9189C13.2572 15.9923 13.1374 16.0358 13.0127 16.0444C12.8879 16.0531 12.7633 16.0266 12.6529 15.9679L8.81576 13.9401C8.71751 13.8918 8.60951 13.8667 8.50005 13.8667C8.39059 13.8667 8.28259 13.8918 8.18433 13.9401L4.34719 15.9679C4.2368 16.0266 4.11215 16.0531 3.98743 16.0444C3.86271 16.0358 3.74293 15.9923 3.64171 15.9189C3.54049 15.8455 3.4619 15.7452 3.41489 15.6294C3.36787 15.5135 3.35432 15.3868 3.37576 15.2636L4.11648 10.9286C4.13525 10.823 4.12731 10.7143 4.09338 10.6125C4.05945 10.5107 4.0006 10.419 3.92219 10.3458L0.81362 7.34649C0.721653 7.25918 0.656977 7.14707 0.627427 7.02375C0.597876 6.90043 0.604719 6.77118 0.647126 6.65167C0.689533 6.53216 0.765685 6.42751 0.866358 6.3504C0.96703 6.27328 1.0879 6.22702 1.21433 6.2172L5.47648 5.58577C5.58406 5.57386 5.68664 5.53395 5.77399 5.47003C5.86135 5.40612 5.93042 5.32042 5.97433 5.22149L7.90505 1.32363C7.95763 1.21011 8.04158 1.11399 8.14701 1.04663C8.25244 0.979273 8.37494 0.943481 8.50005 0.943481C8.62516 0.943481 8.74766 0.979273 8.85308 1.04663C8.95851 1.11399 9.04247 1.21011 9.09505 1.32363Z" fill="#FFDB65" stroke="#FFDB65" stroke-width="1.21429" stroke-linecap="round" stroke-linejoin="round"/>
</svg>
