<svg width="29" height="28" viewBox="0 0 29 28" fill="none" xmlns="http://www.w3.org/2000/svg">
<path d="M25.9394 11.7151H24.9997V11.6667H14.4997V16.3334H21.0931C20.1312 19.05 17.5464 21 14.4997 21C10.6339 21 7.49967 17.8658 7.49967 14C7.49967 10.1343 10.6339 7.00004 14.4997 7.00004C16.2841 7.00004 17.9075 7.67321 19.1436 8.77279L22.4435 5.47287C20.3598 3.53096 17.5727 2.33337 14.4997 2.33337C8.05676 2.33337 2.83301 7.55712 2.83301 14C2.83301 20.443 8.05676 25.6667 14.4997 25.6667C20.9426 25.6667 26.1663 20.443 26.1663 14C26.1663 13.2178 26.0858 12.4542 25.9394 11.7151Z" fill="#FFC107"/>
<path d="M4.17871 8.56979L8.01179 11.3809C9.04896 8.81304 11.5608 7.00004 14.5002 7.00004C16.2846 7.00004 17.908 7.67321 19.1441 8.77279L22.444 5.47287C20.3604 3.53096 17.5732 2.33337 14.5002 2.33337C10.019 2.33337 6.13288 4.86329 4.17871 8.56979Z" fill="#FF3D00"/>
<path d="M14.4995 25.6667C17.513 25.6667 20.2512 24.5135 22.3214 22.638L18.7106 19.5825C17.4999 20.5033 16.0205 21.0012 14.4995 21C11.465 21 8.88845 19.0651 7.91778 16.3649L4.11328 19.2961C6.04411 23.0744 9.96528 25.6667 14.4995 25.6667Z" fill="#4CAF50"/>
<path d="M25.9398 11.715H25V11.6666H14.5V16.3333H21.0934C20.6333 17.6262 19.8045 18.756 18.7093 19.583L18.7111 19.5819L22.3219 22.6374C22.0664 22.8695 26.1667 19.8333 26.1667 14C26.1667 13.2177 26.0862 12.4541 25.9398 11.715Z" fill="#1976D2"/>
</svg>
