<svg width="30" height="25" viewBox="0 0 30 25" fill="none" xmlns="http://www.w3.org/2000/svg">
<path d="M29.6145 2.99821C28.5245 3.49367 27.3495 3.81926 26.1321 3.97498C27.3778 3.2247 28.3405 2.03559 28.7934 0.60583C27.6185 1.31363 26.3161 1.8091 24.943 2.09222C23.8247 0.874796 22.2533 0.166992 20.4697 0.166992C17.143 0.166992 14.425 2.88496 14.425 6.23995C14.425 6.72125 14.4817 7.1884 14.5808 7.62724C9.54119 7.37243 5.05372 4.95174 2.06679 1.28532C1.54301 2.17715 1.24573 3.2247 1.24573 4.32888C1.24573 6.43813 2.30744 8.30673 3.94954 9.36844C2.94446 9.36844 2.01016 9.08532 1.18911 8.66063V8.7031C1.18911 11.6476 3.28421 14.1107 6.0588 14.6628C5.16799 14.9066 4.2328 14.9405 3.32668 14.7619C3.71116 15.9687 4.46417 17.0246 5.47984 17.7813C6.49551 18.538 7.72277 18.9573 8.9891 18.9804C6.84252 20.6798 4.1817 21.5983 1.44392 21.5851C0.962613 21.5851 0.481306 21.5568 0 21.5002C2.68965 23.2272 5.88892 24.2323 9.31469 24.2323C20.4697 24.2323 26.5993 14.9742 26.5993 6.94775C26.5993 6.67879 26.5993 6.42398 26.5851 6.15501C27.7742 5.30565 28.7934 4.22978 29.6145 2.99821Z" fill="white"/>
</svg>
