<svg width="34" height="28" viewBox="0 0 34 28" fill="none" xmlns="http://www.w3.org/2000/svg">
<path fill-rule="evenodd" clip-rule="evenodd" d="M2.28596 2.61937C0.333344 4.57199 0.333344 7.71469 0.333344 14.0001C0.333344 20.2855 0.333344 23.4282 2.28596 25.3808C4.23859 27.3334 7.38128 27.3334 13.6667 27.3334H20.3333C26.6187 27.3334 29.7614 27.3334 31.7141 25.3808C33.6667 23.4282 33.6667 20.2855 33.6667 14.0001C33.6667 7.71469 33.6667 4.57199 31.7141 2.61937C29.7614 0.666748 26.6187 0.666748 20.3333 0.666748H13.6667C7.38128 0.666748 4.23859 0.666748 2.28596 2.61937ZM27.9603 6.53318C28.4022 7.06353 28.3306 7.85174 27.8002 8.29369L24.1394 11.3444C22.6622 12.5755 21.4648 13.5733 20.408 14.253C19.3072 14.961 18.2351 15.4082 17 15.4082C15.7649 15.4082 14.6928 14.961 13.592 14.253C12.5352 13.5733 11.3379 12.5755 9.8606 11.3444L6.19978 8.29369C5.66943 7.85174 5.59778 7.06353 6.03973 6.53318C6.48169 6.00284 7.26989 5.93118 7.80024 6.37314L11.3984 9.3716C12.9533 10.6674 14.0329 11.5641 14.9443 12.1503C15.8266 12.7177 16.4249 12.9082 17 12.9082C17.5751 12.9082 18.1734 12.7177 19.0557 12.1503C19.9671 11.5641 21.0467 10.6674 22.6016 9.3716L26.1998 6.37314C26.7301 5.93118 27.5183 6.00284 27.9603 6.53318Z" fill="#C73E00"/>
</svg>
