<svg width="32" height="23" viewBox="0 0 32 23" fill="none" xmlns="http://www.w3.org/2000/svg">
<path d="M12.9564 16.0131L21.0381 11.3416L12.9564 6.67008V16.0131ZM30.9572 3.82046C31.1597 4.55233 31.2998 5.53334 31.3932 6.77908C31.5022 8.02481 31.549 9.09926 31.549 10.0336L31.6424 11.3416C31.6424 14.7518 31.3932 17.2588 30.9572 18.8627C30.5679 20.2642 29.6648 21.1673 28.2633 21.5566C27.5315 21.759 26.1923 21.8992 24.1368 21.9926C22.1125 22.1016 20.2595 22.1483 18.5466 22.1483L16.0707 22.2418C9.54617 22.2418 5.48196 21.9926 3.87808 21.5566C2.47663 21.1673 1.57347 20.2642 1.18418 18.8627C0.981746 18.1308 0.841601 17.1498 0.74817 15.9041C0.639169 14.6583 0.592453 13.5839 0.592453 12.6496L0.499023 11.3416C0.499023 7.93138 0.74817 5.42434 1.18418 3.82046C1.57347 2.41901 2.47663 1.51585 3.87808 1.12656C4.60995 0.924128 5.94911 0.783983 8.00457 0.690553C10.0289 0.581551 11.8819 0.534836 13.5948 0.534836L16.0707 0.441406C22.5952 0.441406 26.6594 0.690553 28.2633 1.12656C29.6648 1.51585 30.5679 2.41901 30.9572 3.82046Z" fill="white"/>
</svg>
