<svg width="36" height="36" viewBox="0 0 36 36" fill="none" xmlns="http://www.w3.org/2000/svg">
<g id="fi_10090287" clip-path="url(#clip0_574_27922)">
<g id="Full">
<g id="Group">
<path id="Vector" d="M35.64 10.3241C35.64 10.3241 35.289 7.67583 34.2101 6.51033C32.841 4.98258 31.3065 4.97358 30.6034 4.88696C25.5656 4.49658 18.0079 4.49658 18.0079 4.49658H17.991C17.991 4.49658 10.4344 4.49658 5.39775 4.88696C4.6935 4.97246 3.16125 4.98146 1.791 6.51033C0.712125 7.67583 0.36 10.3241 0.36 10.3241C0.36 10.3241 0 13.4313 0 16.5386V19.4512C0 22.5607 0.36 25.6668 0.36 25.6668C0.36 25.6668 0.711 28.314 1.78987 29.4772C3.16013 31.005 4.95787 30.9588 5.75887 31.1186C8.63888 31.4133 18 31.5045 18 31.5045C18 31.5045 25.5645 31.491 30.6034 31.1051C31.3065 31.0151 32.841 31.0061 34.2101 29.4772C35.2879 28.314 35.64 25.6668 35.64 25.6668C35.64 25.6668 36 22.5596 36 19.4512V16.5386C36 13.4313 35.64 10.3241 35.64 10.3241ZM13.5045 24.7522V11.2477L24.7579 18L13.5045 24.7522Z" fill="url(#paint0_linear_574_27922)"/>
</g>
</g>
</g>
<defs>
<linearGradient id="paint0_linear_574_27922" x1="18" y1="31.5045" x2="18" y2="4.49546" gradientUnits="userSpaceOnUse">
<stop stop-color="#FF2D76"/>
<stop offset="1" stop-color="#FB0000"/>
</linearGradient>
<clipPath id="clip0_574_27922">
<rect width="36" height="36" fill="white"/>
</clipPath>
</defs>
</svg>
