<svg width="50" height="50" viewBox="0 0 50 50" fill="none" xmlns="http://www.w3.org/2000/svg">
<g clip-path="url(#clip0_574_27896)" filter="url(#filter0_d_574_27896)">
<path d="M45.9997 21.8418C45.9997 22.1198 45.989 28.5729 45.14 31.8004C44.6117 33.7609 43.0687 35.3033 41.1114 35.8297C40.7579 35.9224 40.296 36.0052 39.753 36.0799H39.7505C35.3167 36.6825 25.4665 36.6907 24.9998 36.6907C24.4772 36.6907 12.1529 36.6801 8.88726 35.7962C6.93163 35.2698 5.3878 33.7274 4.86116 31.7701C4.00984 28.5721 4 22.0829 4 21.8081C4 21.5342 4.00984 15.0778 4.85969 11.8487C5.38305 9.90704 6.96215 8.31383 8.88578 7.78654C12.1219 6.93538 24.4757 6.92554 24.9999 6.92554C25.4626 6.92554 35.102 6.93292 39.6039 7.53971C40.2134 7.62174 40.7285 7.71435 41.1141 7.82017C43.0689 8.34583 44.6119 9.88818 45.1393 11.8454C46.021 15.0663 46.0013 21.5293 45.9997 21.8418Z" fill="#D9F0F4"/>
<path d="M45.139 11.8455C46.0208 15.0664 46.0011 21.5294 45.9995 21.8417C45.9995 22.1197 45.9888 28.5729 45.1398 31.8003C44.6115 33.7609 43.0685 35.3032 41.1113 35.8297C40.7577 35.9224 40.2959 36.0052 39.7528 36.0798C41.5673 35.4443 42.9775 33.8741 43.482 32.0038C44.3482 28.7107 44.3589 22.1264 44.3589 21.8426C44.3605 21.5237 44.3802 14.9295 43.4811 11.643C42.9635 9.72351 41.4886 8.13522 39.6035 7.53992C40.213 7.62195 40.7282 7.71456 41.1137 7.82038C43.0686 8.34587 44.6116 9.88822 45.139 11.8455Z" fill="#BAE1E5"/>
<path d="M43.5388 21.8295V21.841C43.5388 23.6113 43.3994 28.737 42.762 31.1666C42.4601 32.2776 41.5857 33.1517 40.4807 33.4518C40.1312 33.5428 39.6358 33.624 39.0328 33.6962C35.4259 34.1275 27.98 34.2308 24.9998 34.2308C21.5275 34.2308 11.9791 34.0848 9.52718 33.4206C8.41484 33.1213 7.53793 32.2464 7.23933 31.1378C6.60203 28.7435 6.46094 23.5916 6.46094 21.8082C6.46094 20.0387 6.60039 14.913 7.23777 12.4834C7.53883 11.3757 8.43461 10.4671 9.52234 10.1629C9.52645 10.1621 9.52973 10.1613 9.53383 10.1605C11.9841 9.52499 21.5292 9.38562 24.9999 9.38562C27.9736 9.38562 35.3858 9.49144 38.9919 9.93498C39.6071 10.0105 40.1116 10.0965 40.4644 10.1925C41.5849 10.4942 42.4626 11.3716 42.7629 12.4851L42.7645 12.4925C43.4247 14.9032 43.547 20.0469 43.5388 21.8295Z" fill="#FF6B81"/>
<path d="M42.7648 12.4924C43.4252 14.9032 43.5474 20.0468 43.5392 21.8295V21.841C43.5392 23.6113 43.3997 28.7369 42.7623 31.1665C42.4605 32.2775 41.586 33.1517 40.4811 33.4517C40.1316 33.5428 39.6361 33.6239 39.0332 33.6961C39.9126 33.2787 40.5844 32.4891 40.8461 31.5297C41.5073 29.0051 41.6525 23.681 41.6525 21.8426V21.8303C41.6615 19.9788 41.5335 14.635 40.8486 12.1317L40.8461 12.1243C40.5836 11.151 39.897 10.3507 38.9922 9.93494C39.6074 10.0104 40.1119 10.0965 40.4646 10.1924C41.5852 10.4941 42.4629 11.3716 42.7632 12.485L42.7648 12.4924Z" fill="#ED2061"/>
<path d="M30.5506 21.2751L22.5492 16.6684C22.3589 16.5588 22.1243 16.5589 21.9343 16.6689C21.7441 16.7788 21.627 16.9817 21.627 17.2013V26.4148C21.627 26.6344 21.7441 26.8373 21.9343 26.9471C22.0296 27.0022 22.1359 27.0297 22.2422 27.0297C22.3482 27.0297 22.4542 27.0023 22.5492 26.9475L30.5506 22.3408C30.7412 22.2311 30.8587 22.0279 30.8587 21.808C30.8587 21.588 30.7412 21.3848 30.5506 21.2751Z" fill="white"/>
<path d="M40.831 2.04504V9.88313C40.831 11.0114 39.9139 11.9282 38.7852 11.9282H34.4728L33.1562 13.824C33.0413 13.9896 32.8527 14.0889 32.6509 14.0889C32.4491 14.0889 32.2604 13.9896 32.1455 13.824L30.8298 11.9282H26.5166C25.3886 11.9282 24.4707 11.0115 24.4707 9.88313V2.04504C24.4707 0.917602 25.3886 0 26.5166 0H38.7851C39.9139 0 40.831 0.91752 40.831 2.04504Z" fill="#4DD4F7"/>
<path d="M35.3005 3.93835C35.3004 3.93827 35.3004 3.93835 35.3005 3.93835C34.5837 3.22197 33.4169 3.22263 32.6996 3.93983L32.6526 3.98683L32.6056 3.93983C32.2582 3.59251 31.7963 3.40104 31.3052 3.40063H31.3038C30.813 3.40063 30.3517 3.5916 30.0048 3.93835C29.6576 4.28542 29.4666 4.7471 29.4668 5.23813C29.4672 5.72909 29.6588 6.19068 30.0062 6.538L32.3625 8.89328C32.4426 8.97335 32.5476 9.01338 32.6525 9.01338C32.7574 9.01338 32.8625 8.97335 32.9425 8.89328L35.2987 6.53792C36.0163 5.82088 36.017 4.65473 35.3005 3.93835Z" fill="white"/>
<path d="M27.0096 34.4932V40.1199C27.0096 41.1564 26.1655 42 25.1294 42H13.1497C12.1128 42 11.2695 41.1563 11.2695 40.1199V30.636C11.2695 30.4023 11.4024 30.1891 11.6116 30.085C11.8208 29.9809 12.071 30.0054 12.2572 30.1465L15.504 32.6139H25.1294C26.1655 32.6138 27.0096 33.4567 27.0096 34.4932Z" fill="#FBDF63"/>
<path d="M23.4309 38.2339H15.2324C14.8926 38.2339 14.6172 38.5093 14.6172 38.8489C14.6172 39.1885 14.8926 39.4639 15.2324 39.4639H23.4309C23.7707 39.4639 24.0461 39.1885 24.0461 38.8489C24.0461 38.5093 23.7707 38.2339 23.4309 38.2339Z" fill="white"/>
<path d="M15.2324 36.6759H22.6112C22.9511 36.6759 23.2264 36.4005 23.2264 36.0609C23.2264 35.7213 22.9511 35.4459 22.6112 35.4459H15.2324C14.8926 35.4459 14.6172 35.7213 14.6172 36.0609C14.6172 36.4006 14.8926 36.6759 15.2324 36.6759Z" fill="white"/>
<path d="M40.831 2.04504V9.88313C40.831 11.0114 39.9139 11.9282 38.7852 11.9282H37.1445C38.2733 11.9282 39.1904 11.0115 39.1904 9.88313V2.04504C39.1904 0.917602 38.2733 0 37.1445 0H38.7852C39.9139 0 40.831 0.91752 40.831 2.04504Z" fill="#00C2F3"/>
<path d="M27.0091 34.4931V40.1198C27.0091 41.1563 26.165 41.9999 25.1289 41.9999H23.4883C24.5243 41.9999 25.3684 41.1562 25.3684 40.1198V34.4931C25.3684 33.4566 24.5243 32.6138 23.4883 32.6138H25.1289C26.165 32.6137 27.0091 33.4566 27.0091 34.4931Z" fill="#FFA402"/>
</g>
<defs>
<filter id="filter0_d_574_27896" x="0" y="0" width="50" height="50" filterUnits="userSpaceOnUse" color-interpolation-filters="sRGB">
<feFlood flood-opacity="0" result="BackgroundImageFix"/>
<feColorMatrix in="SourceAlpha" type="matrix" values="0 0 0 0 0 0 0 0 0 0 0 0 0 0 0 0 0 0 127 0" result="hardAlpha"/>
<feOffset dy="4"/>
<feGaussianBlur stdDeviation="2"/>
<feComposite in2="hardAlpha" operator="out"/>
<feColorMatrix type="matrix" values="0 0 0 0 0 0 0 0 0 0 0 0 0 0 0 0 0 0 0.25 0"/>
<feBlend mode="normal" in2="BackgroundImageFix" result="effect1_dropShadow_574_27896"/>
<feBlend mode="normal" in="SourceGraphic" in2="effect1_dropShadow_574_27896" result="shape"/>
</filter>
<clipPath id="clip0_574_27896">
<rect width="42" height="42" fill="white" transform="translate(4)"/>
</clipPath>
</defs>
</svg>
